<svg width="60" height="60" viewBox="0 0 60 60" fill="none" xmlns="http://www.w3.org/2000/svg">
<g clip-path="url(#clip0_36_86)">
<path d="M44.85 44.85C40.5765 48.1075 35.3728 49.9122 30 50C12.5 50 2.5 30 2.5 30C5.60972 24.2047 9.92284 19.1415 15.15 15.15M24.75 10.6C26.4708 10.1972 28.2327 9.99585 30 10C47.5 10 57.5 30 57.5 30C55.9824 32.839 54.1726 35.5118 52.1 37.975M35.3 35.3C34.6134 36.0369 33.7854 36.6279 32.8654 37.0378C31.9454 37.4477 30.9523 37.6681 29.9452 37.6859C28.9382 37.7037 27.9379 37.5184 27.004 37.1412C26.0701 36.764 25.2218 36.2026 24.5096 35.4904C23.7974 34.7782 23.236 33.9299 22.8588 32.996C22.4816 32.0621 22.2963 31.0618 22.3141 30.0548C22.3319 29.0477 22.5523 28.0546 22.9622 27.1346C23.3721 26.2146 23.9631 25.3866 24.7 24.7M2.5 2.5L57.5 57.5" stroke="white" stroke-width="4" stroke-linecap="round" stroke-linejoin="round"/>
</g>
<defs>
<clipPath id="clip0_36_86">
<rect width="60" height="60" fill="white"/>
</clipPath>
</defs>
</svg>
